------------------------------------------------------------
                   Source file MediaInfo
------------------------------------------------------------

Adele - Rolling In The Deep( Live At The Royal Albert Hall).mp4

General
Complete name                            : Adele - Rolling In The Deep( Live At The Royal Albert Hall).mp4
Format                                   : MPEG-4
Format profile                           : Base Media
Codec ID                                 : isom
File size                                : 525 MiB
Duration                                 : 4mn 35s
Overall bit rate mode                    : Variable
Overall bit rate                         : 16.0 Mbps


Video
ID                                       : 1
Format                                   : AVC
Format/Info                              : Advanced Video Codec
Format profile                           : High@L4.0
Format settings, CABAC                   : Yes
Format settings, ReFrames                : 4 frames
Codec ID                                 : avc1
Codec ID/Info                            : Advanced Video Coding
Duration                                 : 4mn 35s
Bit rate                                 : 14.9 Mbps
Maximum bit rate                         : 47.2 Mbps
Width                                    : 1 904 pixels
Height                                   : 816 pixels
Display aspect ratio                     : 2.35:1
Frame rate mode                          : Constant
Frame rate                               : 29.970 fps
Color space                              : YUV
Chroma subsampling                       : 4:2:0
Bit depth                                : 8 bits
Scan type                                : Progressive
Bits/(Pixel*Frame)                       : 0.320
Stream size                              : 489 MiB (93%)
Title                                    : Video


Audio
ID                                       : 2
Format                                   : AAC
Format/Info                              : Advanced Audio Codec
Format profile                           : LC
Codec ID                                 : 40
Duration                                 : 4mn 35s
Bit rate mode                            : Variable
Bit rate                                 : 1 112 Kbps
Maximum bit rate                         : 1 153 Kbps
Channel(s)                               : 6 channels
Channel positions                        : Front: L C R, Side: L R, LFE
Sampling rate                            : 48.0 KHz
Compression mode                         : Lossy
Stream size                              : 36.5 MiB (7%)
Language                                 : English

